<svg width="434" height="210" viewBox="0 0 434 210" fill="none" xmlns="http://www.w3.org/2000/svg">
<path d="M52.1602 53.7754H57.2754C57.3926 54.8066 57.9375 55.6445 58.9102 56.2891C59.8945 56.9219 61.0957 57.2383 62.5137 57.2383C63.9199 57.2383 65.0625 56.9395 65.9414 56.3418C66.832 55.7324 67.2773 54.959 67.2773 54.0215C67.2773 53.2012 66.9492 52.5391 66.293 52.0352C65.6367 51.5312 64.541 51.1094 63.0059 50.7695L59.7012 50.0488C55.0488 49.0527 52.7227 46.6914 52.7227 42.9648C52.7227 40.6445 53.625 38.7695 55.4297 37.3398C57.2461 35.9102 59.5781 35.1953 62.4258 35.1953C65.3555 35.1953 67.6934 35.8926 69.4395 37.2871C71.1855 38.6699 72.082 40.5156 72.1289 42.8242H67.1543C67.0723 41.7578 66.5977 40.9199 65.7305 40.3105C64.875 39.6895 63.7793 39.3789 62.4434 39.3789C61.1309 39.3789 60.0703 39.666 59.2617 40.2402C58.4648 40.8145 58.0664 41.5703 58.0664 42.5078C58.0664 43.2812 58.3887 43.9082 59.0332 44.3887C59.6895 44.8691 60.75 45.2793 62.2148 45.6191L65.291 46.2695C67.834 46.8086 69.6855 47.6523 70.8457 48.8008C72.0059 49.9375 72.5859 51.4727 72.5859 53.4062C72.5859 55.8672 71.6602 57.8242 69.8086 59.2773C67.957 60.7188 65.4551 61.4395 62.3027 61.4395C59.2441 61.4395 56.8066 60.7598 54.9902 59.4004C53.1855 58.0293 52.2422 56.1543 52.1602 53.7754ZM83.8711 45.5488C82.7578 45.5488 81.8262 45.9297 81.0762 46.6914C80.3379 47.4531 79.9219 48.4258 79.8281 49.6094H87.8262C87.7676 48.4023 87.375 47.4238 86.6484 46.6738C85.9336 45.9238 85.0078 45.5488 83.8711 45.5488ZM87.8965 55.2344H92.6074C92.3262 57.0859 91.4004 58.5801 89.8301 59.7168C88.2715 60.8418 86.332 61.4043 84.0117 61.4043C81.1172 61.4043 78.8438 60.5371 77.1914 58.8027C75.5508 57.0684 74.7305 54.6895 74.7305 51.666C74.7305 48.6543 75.5508 46.252 77.1914 44.459C78.832 42.6543 81.041 41.752 83.8184 41.752C86.5488 41.752 88.7227 42.6074 90.3398 44.3184C91.957 46.0293 92.7656 48.3203 92.7656 51.1914V52.7559H79.7754V53.0723C79.7754 54.4199 80.168 55.5156 80.9531 56.3594C81.75 57.1914 82.7988 57.6074 84.0996 57.6074C85.0371 57.6074 85.8457 57.3965 86.5254 56.9746C87.2051 56.541 87.6621 55.9609 87.8965 55.2344ZM112.541 49.1699H107.777C107.625 48.1504 107.221 47.3301 106.564 46.709C105.92 46.0879 105.082 45.7773 104.051 45.7773C102.773 45.7773 101.766 46.293 101.027 47.3242C100.301 48.3438 99.9375 49.7559 99.9375 51.5605C99.9375 53.4004 100.301 54.8301 101.027 55.8496C101.766 56.8691 102.779 57.3789 104.068 57.3789C105.088 57.3789 105.92 57.0918 106.564 56.5176C107.209 55.9316 107.613 55.123 107.777 54.0918H112.559C112.43 56.3184 111.592 58.0938 110.045 59.418C108.498 60.7422 106.488 61.4043 104.016 61.4043C101.156 61.4043 98.8945 60.5312 97.2305 58.7852C95.5664 57.0273 94.7344 54.6191 94.7344 51.5605C94.7344 48.5488 95.5664 46.1641 97.2305 44.4062C98.9062 42.6367 101.156 41.752 103.98 41.752C106.488 41.752 108.51 42.4434 110.045 43.8262C111.592 45.209 112.424 46.9902 112.541 49.1699ZM132.439 42.1562V61H127.482V57.6074H127.377C126.393 60.1035 124.512 61.3516 121.734 61.3516C119.672 61.3516 118.025 60.7246 116.795 59.4707C115.564 58.2051 114.949 56.4824 114.949 54.3027V42.1562H120.082V53.2305C120.082 54.4844 120.381 55.4395 120.979 56.0957C121.588 56.752 122.461 57.0801 123.598 57.0801C124.734 57.0801 125.637 56.7051 126.305 55.9551C126.973 55.2051 127.307 54.2031 127.307 52.9492V42.1562H132.439ZM135.779 61V42.1562H140.736V45.5488H140.842C141.17 44.3535 141.721 43.4395 142.494 42.8066C143.268 42.1738 144.211 41.8574 145.324 41.8574C145.863 41.8574 146.35 41.9219 146.783 42.0508V46.5684C146.303 46.3691 145.682 46.2695 144.92 46.2695C143.654 46.2695 142.67 46.6387 141.967 47.377C141.264 48.1152 140.912 49.1465 140.912 50.4707V61H135.779ZM156.715 45.5488C155.602 45.5488 154.67 45.9297 153.92 46.6914C153.182 47.4531 152.766 48.4258 152.672 49.6094H160.67C160.611 48.4023 160.219 47.4238 159.492 46.6738C158.777 45.9238 157.852 45.5488 156.715 45.5488ZM160.74 55.2344H165.451C165.17 57.0859 164.244 58.5801 162.674 59.7168C161.115 60.8418 159.176 61.4043 156.855 61.4043C153.961 61.4043 151.688 60.5371 150.035 58.8027C148.395 57.0684 147.574 54.6895 147.574 51.666C147.574 48.6543 148.395 46.252 150.035 44.459C151.676 42.6543 153.885 41.752 156.662 41.752C159.393 41.752 161.566 42.6074 163.184 44.3184C164.801 46.0293 165.609 48.3203 165.609 51.1914V52.7559H152.619V53.0723C152.619 54.4199 153.012 55.5156 153.797 56.3594C154.594 57.1914 155.643 57.6074 156.943 57.6074C157.881 57.6074 158.689 57.3965 159.369 56.9746C160.049 56.541 160.506 55.9609 160.74 55.2344ZM175.26 61.2988C172.904 61.2988 171.035 60.4258 169.652 58.6797C168.27 56.9336 167.578 54.5547 167.578 51.543C167.578 48.5547 168.27 46.1934 169.652 44.459C171.047 42.7246 172.928 41.8574 175.295 41.8574C176.631 41.8574 177.803 42.1797 178.811 42.8242C179.83 43.4688 180.574 44.3242 181.043 45.3906H181.148V35.6348H186.281V61H181.219V57.7656H181.131C180.662 58.832 179.906 59.6875 178.863 60.332C177.82 60.9766 176.619 61.2988 175.26 61.2988ZM177 45.9707C175.711 45.9707 174.691 46.4746 173.941 47.4824C173.203 48.4902 172.834 49.8555 172.834 51.5781C172.834 53.3125 173.203 54.6777 173.941 55.6738C174.691 56.6699 175.711 57.168 177 57.168C178.277 57.168 179.291 56.6699 180.041 55.6738C180.803 54.666 181.184 53.3008 181.184 51.5781C181.184 49.8672 180.803 48.5078 180.041 47.5C179.291 46.4805 178.277 45.9707 177 45.9707ZM208.518 61H197.285V35.6348H208.324C210.703 35.6348 212.59 36.2031 213.984 37.3398C215.379 38.4766 216.076 40.0176 216.076 41.9629C216.076 43.3457 215.619 44.5586 214.705 45.6016C213.803 46.6445 212.672 47.2656 211.312 47.4648V47.6055C213.047 47.7344 214.477 48.373 215.602 49.5215C216.727 50.6699 217.289 52.0762 217.289 53.7402C217.289 55.9785 216.504 57.748 214.934 59.0488C213.363 60.3496 211.225 61 208.518 61ZM202.594 39.5898V46.1816H206.408C207.826 46.1816 208.922 45.8887 209.695 45.3027C210.469 44.7051 210.855 43.8672 210.855 42.7891C210.855 41.7695 210.516 40.9844 209.836 40.4336C209.156 39.8711 208.195 39.5898 206.953 39.5898H202.594ZM202.594 57.0449H207.164C208.699 57.0449 209.865 56.7285 210.662 56.0957C211.471 55.4512 211.875 54.5254 211.875 53.3184C211.875 52.1348 211.459 51.2324 210.627 50.6113C209.807 49.9902 208.611 49.6797 207.041 49.6797H202.594V57.0449ZM222.281 67.9785C221.156 67.9785 220.512 67.9609 220.348 67.9258V63.9707C220.453 63.9941 220.881 64.0059 221.631 64.0059C222.58 64.0059 223.301 63.8418 223.793 63.5137C224.285 63.1973 224.619 62.6641 224.795 61.9141C224.795 61.9023 224.824 61.7559 224.883 61.4746C224.941 61.1934 224.965 61.041 224.953 61.0176L218.396 42.1562H224.039L228.047 56.8867H228.135L232.143 42.1562H237.557L231.07 61.4219C230.262 63.8359 229.195 65.5293 227.871 66.502C226.559 67.4863 224.695 67.9785 222.281 67.9785ZM246.996 35.6348H257.314C259.928 35.6348 262.043 36.4316 263.66 38.0254C265.289 39.6191 266.104 41.7168 266.104 44.3184C266.104 46.9082 265.266 49.0059 263.59 50.6113C261.914 52.2051 259.734 53.002 257.051 53.002H252.305V61H246.996V35.6348ZM252.305 39.8359V48.8535H255.891C257.414 48.8535 258.598 48.4609 259.441 47.6758C260.285 46.8906 260.707 45.7773 260.707 44.3359C260.707 42.8945 260.285 41.7871 259.441 41.0137C258.609 40.2285 257.432 39.8359 255.908 39.8359H252.305ZM274.857 57.5898C275.994 57.5898 276.955 57.2617 277.74 56.6055C278.537 55.9375 278.936 55.0996 278.936 54.0918V52.7207L274.963 52.9668C274.002 53.0371 273.258 53.2773 272.73 53.6875C272.215 54.0977 271.957 54.6367 271.957 55.3047C271.957 56.0078 272.221 56.5645 272.748 56.9746C273.275 57.3848 273.979 57.5898 274.857 57.5898ZM273.17 61.2988C271.354 61.2988 269.848 60.7656 268.652 59.6992C267.457 58.6328 266.859 57.2617 266.859 55.5859C266.859 53.875 267.492 52.5332 268.758 51.5605C270.023 50.5879 271.834 50.0312 274.189 49.8906L278.936 49.6094V48.3613C278.936 47.4941 278.648 46.8145 278.074 46.3223C277.512 45.8301 276.744 45.584 275.771 45.584C274.834 45.584 274.066 45.7949 273.469 46.2168C272.883 46.6387 272.525 47.207 272.396 47.9219H267.703C267.797 46.0703 268.588 44.582 270.076 43.457C271.564 42.3203 273.539 41.752 276 41.752C278.414 41.752 280.348 42.3262 281.801 43.4746C283.254 44.623 283.98 46.1465 283.98 48.0449V61H279.023V58.1172H278.918C278.402 59.1016 277.617 59.8809 276.562 60.4551C275.508 61.0176 274.377 61.2988 273.17 61.2988ZM289.605 67.9785C288.48 67.9785 287.836 67.9609 287.672 67.9258V63.9707C287.777 63.9941 288.205 64.0059 288.955 64.0059C289.904 64.0059 290.625 63.8418 291.117 63.5137C291.609 63.1973 291.943 62.6641 292.119 61.9141C292.119 61.9023 292.148 61.7559 292.207 61.4746C292.266 61.1934 292.289 61.041 292.277 61.0176L285.721 42.1562H291.363L295.371 56.8867H295.459L299.467 42.1562H304.881L298.395 61.4219C297.586 63.8359 296.52 65.5293 295.195 66.502C293.883 67.4863 292.02 67.9785 289.605 67.9785ZM306.322 47.6934C306.322 45.9004 307.043 44.4648 308.484 43.3867C309.926 42.2969 311.854 41.752 314.268 41.752C316.623 41.752 318.516 42.3027 319.945 43.4043C321.375 44.5059 322.107 45.9707 322.143 47.7988H317.414C317.355 47.0371 317.039 46.4395 316.465 46.0059C315.902 45.5723 315.146 45.3555 314.197 45.3555C313.307 45.3555 312.592 45.543 312.053 45.918C311.525 46.2812 311.262 46.7676 311.262 47.377C311.262 48.291 312.082 48.9414 313.723 49.3281L317.326 50.1016C319.213 50.5234 320.566 51.1387 321.387 51.9473C322.219 52.7441 322.635 53.8457 322.635 55.252C322.635 57.1035 321.861 58.5918 320.314 59.7168C318.768 60.8418 316.746 61.4043 314.25 61.4043C311.766 61.4043 309.779 60.8535 308.291 59.752C306.803 58.6504 305.988 57.168 305.848 55.3047H310.857C310.986 56.1016 311.35 56.7168 311.947 57.1504C312.557 57.584 313.371 57.8008 314.391 57.8008C315.363 57.8008 316.125 57.625 316.676 57.2734C317.238 56.9102 317.52 56.418 317.52 55.7969C317.52 55.3164 317.344 54.9355 316.992 54.6543C316.641 54.3613 316.043 54.1152 315.199 53.916L311.719 53.1426C308.121 52.3223 306.322 50.5059 306.322 47.6934ZM326.572 37.8145H331.705V42.1562H335.186V46.0234H331.705V55.041C331.705 56.459 332.443 57.168 333.92 57.168C334.4 57.168 334.816 57.1387 335.168 57.0801V60.8594C334.57 61 333.756 61.0703 332.725 61.0703C330.51 61.0703 328.928 60.6719 327.979 59.875C327.041 59.0781 326.572 57.7598 326.572 55.9199V46.0234H323.918V42.1562H326.572V37.8145ZM345.1 57.5898C346.236 57.5898 347.197 57.2617 347.982 56.6055C348.779 55.9375 349.178 55.0996 349.178 54.0918V52.7207L345.205 52.9668C344.244 53.0371 343.5 53.2773 342.973 53.6875C342.457 54.0977 342.199 54.6367 342.199 55.3047C342.199 56.0078 342.463 56.5645 342.99 56.9746C343.518 57.3848 344.221 57.5898 345.1 57.5898ZM343.412 61.2988C341.596 61.2988 340.09 60.7656 338.895 59.6992C337.699 58.6328 337.102 57.2617 337.102 55.5859C337.102 53.875 337.734 52.5332 339 51.5605C340.266 50.5879 342.076 50.0312 344.432 49.8906L349.178 49.6094V48.3613C349.178 47.4941 348.891 46.8145 348.316 46.3223C347.754 45.8301 346.986 45.584 346.014 45.584C345.076 45.584 344.309 45.7949 343.711 46.2168C343.125 46.6387 342.768 47.207 342.639 47.9219H337.945C338.039 46.0703 338.83 44.582 340.318 43.457C341.807 42.3203 343.781 41.752 346.242 41.752C348.656 41.752 350.59 42.3262 352.043 43.4746C353.496 44.623 354.223 46.1465 354.223 48.0449V61H349.266V58.1172H349.16C348.645 59.1016 347.859 59.8809 346.805 60.4551C345.75 61.0176 344.619 61.2988 343.412 61.2988ZM374.666 49.1699H369.902C369.75 48.1504 369.346 47.3301 368.689 46.709C368.045 46.0879 367.207 45.7773 366.176 45.7773C364.898 45.7773 363.891 46.293 363.152 47.3242C362.426 48.3438 362.062 49.7559 362.062 51.5605C362.062 53.4004 362.426 54.8301 363.152 55.8496C363.891 56.8691 364.904 57.3789 366.193 57.3789C367.213 57.3789 368.045 57.0918 368.689 56.5176C369.334 55.9316 369.738 55.123 369.902 54.0918H374.684C374.555 56.3184 373.717 58.0938 372.17 59.418C370.623 60.7422 368.613 61.4043 366.141 61.4043C363.281 61.4043 361.02 60.5312 359.355 58.7852C357.691 57.0273 356.859 54.6191 356.859 51.5605C356.859 48.5488 357.691 46.1641 359.355 44.4062C361.031 42.6367 363.281 41.752 366.105 41.752C368.613 41.752 370.635 42.4434 372.17 43.8262C373.717 45.209 374.549 46.9902 374.666 49.1699ZM382.488 49.7148L388.887 42.1562H394.705L387.516 50.2422L395.057 61H389.15L383.754 53.3359L382.418 54.7773V61H377.285V35.6348H382.418V49.7148H382.488Z" fill="white"/>
<path d="M249.143 94H193.429C191.543 94 190 95.5476 190 97.4392V103.63C190 105.521 191.543 107.069 193.429 107.069H248.971C250.857 107.069 252.4 105.521 252.4 103.63V97.4392C252.571 95.5476 251.029 94 249.143 94ZM249.143 128.563H193.429C191.543 128.563 190 130.111 190 132.003V138.193C190 140.085 191.543 141.632 193.429 141.632H248.971C250.857 141.632 252.4 140.085 252.4 138.193V132.003C252.571 130.111 251.029 128.563 249.143 128.563V128.563ZM224.8 145.931H193.429C191.543 145.931 190 147.479 190 149.37V155.561C190 157.452 191.543 159 193.429 159H224.8C226.686 159 228.229 157.452 228.229 155.561V149.37C228.229 147.479 226.686 145.931 224.8 145.931V145.931ZM252.571 111.368H193.429C191.543 111.368 190 112.915 190 114.807V120.997C190 122.889 191.543 124.437 193.429 124.437H252.571C254.457 124.437 256 122.889 256 120.997V114.807C256 112.915 254.457 111.368 252.571 111.368V111.368Z" fill="#0BA4DB"/>
</svg>
